<?xml version="1.0" encoding="iso-8859-1"?>
<!-- Generator: Adobe Illustrator 18.0.0, SVG Export Plug-In . SVG Version: 6.00 Build 0)  -->
<!DOCTYPE svg PUBLIC "-//W3C//DTD SVG 1.1//EN" "http://www.w3.org/Graphics/SVG/1.1/DTD/svg11.dtd">
<svg version="1.1" id="Capa_1" xmlns="http://www.w3.org/2000/svg" xmlns:xlink="http://www.w3.org/1999/xlink" x="0px" y="0px"
	 viewBox="0 0 287.111 287.111" style="enable-background:new 0 0 287.111 287.111;" xml:space="preserve">
<g>
	<path d="M90.823,212.611c0,29.065,23.646,52.712,52.712,52.712s52.712-23.646,52.712-52.712s-23.646-52.712-52.712-52.712
		S90.823,183.546,90.823,212.611z M183.247,212.611c0,21.897-17.814,39.712-39.712,39.712s-39.712-17.814-39.712-39.712
		s17.814-39.712,39.712-39.712S183.247,190.714,183.247,212.611z"/>
	<path d="M272.811,10.318c1.436-1.978,1.641-4.593,0.531-6.771C272.232,1.371,269.994,0,267.551,0h-73.04
		c-2.082,0-4.037,0.997-5.26,2.682l-45.694,62.94L97.861,2.681C96.638,0.997,94.682,0,92.601,0h-73.04
		c-2.443,0-4.682,1.371-5.791,3.548c-1.11,2.178-0.904,4.793,0.531,6.771l86.21,118.742v22.787
		c-19.026,13.511-31.476,35.703-31.476,60.763c0,41.08,33.421,74.5,74.5,74.5s74.5-33.42,74.5-74.5
		c0-25.059-12.449-47.251-31.475-60.762v-22.722L272.811,10.318z M176.862,120.36h-19.485L235.093,13H254.8L176.862,120.36z
		 M197.824,13h21.219l-77.717,107.36h-21.442L197.824,13z M89.287,13l46.238,63.686l-28.487,39.239L32.313,13H89.287z
		 M205.035,212.611c0,33.911-27.589,61.5-61.5,61.5s-61.5-27.589-61.5-61.5s27.589-61.5,61.5-61.5S205.035,178.7,205.035,212.611z
		 M143.535,138.111c-10.68,0-20.833,2.276-30.024,6.341V133.36h60.05v11.092C164.369,140.387,154.216,138.111,143.535,138.111z"/>
</g>
<g>
</g>
<g>
</g>
<g>
</g>
<g>
</g>
<g>
</g>
<g>
</g>
<g>
</g>
<g>
</g>
<g>
</g>
<g>
</g>
<g>
</g>
<g>
</g>
<g>
</g>
<g>
</g>
<g>
</g>
</svg>
